# xmcd
#
# Track frame offsets:
#	150
#	20884
#	48730
#	65065
#	85851
#
# Disc length: 1413 seconds
#
# Revision: 1
# Processed by: cddbd v1.5.2PL0 Copyright (c) Steve Scherf et al.
# Submitted via: audiograbber 1.83.01
#
DISCID=45058305
DTITLE=Kings Of Winter - Demo 2012
DYEAR=2012
DGENRE=Traditional
TTITLE0=Snake Oil Salesman
TTITLE1=John Barleycorn
TTITLE2=Eilene Og
TTITLE3=Shady Grove
TTITLE4=Gallows Pole
EXTD=
EXTT0=
EXTT1=
EXTT2=
EXTT3=
EXTT4=
PLAYORDER=
